# xmcd CD database file
#
# Track frame offsets:
#	150
#	28804
#	51744
#	76326
#	93441
#	122191
#	145784
#	162304
#
# Disc length: 2504 seconds
#
# Revision: 0
# Processed by: cddbd v1.5.2PL0 Copyright (c) Steve Scherf et al.
# Submitted via: CDex 1.51
#
DISCID=6d09c608
DTITLE=Luis Mangual y Su Conjunto Mangual - Fuego, Fire, Candela!
DYEAR=2006
DGENRE=Salsa
TTITLE0=Fuego Fire Candela
TTITLE1=Arsenio, Chapo, Y Cuni
TTITLE2=Amor Es Felicidad
TTITLE3=Sabor A Mi
TTITLE4=Perfecto
TTITLE5=Vengo Arrolando
TTITLE6=Bolero Medley
TTITLE7=Amor Bendito
EXTD=YEAR: 2006
EXTT0=
EXTT1=
EXTT2=
EXTT3=
EXTT4=
EXTT5=
EXTT6=
EXTT7=
PLAYORDER=
